<svg width="327" height="327" viewBox="0 0 327 327" fill="none" xmlns="http://www.w3.org/2000/svg">
<path d="M20.94 269.52V270.72C19.58 270.76 18.54 270.92 17.82 271.2C17.14 271.44 16.68 271.92 16.44 272.64C16.2 273.32 16.08 274.4 16.08 275.88V306.36C16.08 307.6 16.16 308.52 16.32 309.12C16.52 309.72 16.88 310.12 17.4 310.32C17.96 310.52 18.78 310.62 19.86 310.62H22.8C24.16 310.62 25.44 310.3 26.64 309.66C27.84 309.02 28.92 308.12 29.88 306.96C30.84 305.76 31.64 304.34 32.28 302.7C32.92 301.06 33.4 299.24 33.72 297.24H35.1C34.98 298.6 34.92 300.36 34.92 302.52C34.92 303.44 34.94 304.78 34.98 306.54C35.02 308.3 35.14 310.12 35.34 312C33.3 311.92 31 311.88 28.44 311.88C25.88 311.84 23.6 311.82 21.6 311.82C20.6 311.82 19.32 311.82 17.76 311.82C16.2 311.82 14.52 311.84 12.72 311.88C10.92 311.88 9.1 311.9 7.26 311.94C5.42 311.94 3.68 311.96 2.04 312V310.8C3.32 310.72 4.28 310.56 4.92 310.32C5.56 310.08 5.98 309.6 6.18 308.88C6.42 308.16 6.54 307.08 6.54 305.64V275.88C6.54 274.4 6.42 273.32 6.18 272.64C5.98 271.92 5.54 271.44 4.86 271.2C4.22 270.92 3.28 270.76 2.04 270.72V269.52C3.04 269.56 4.38 269.6 6.06 269.64C7.78 269.68 9.6 269.7 11.52 269.7C13.28 269.7 15 269.68 16.68 269.64C18.4 269.6 19.82 269.56 20.94 269.52ZM45.9197 265.5C47.5997 265.5 48.9197 265.92 49.8797 266.76C50.8797 267.56 51.3797 268.68 51.3797 270.12C51.3797 271.56 50.8797 272.7 49.8797 273.54C48.9197 274.34 47.5997 274.74 45.9197 274.74C44.2397 274.74 42.8997 274.34 41.8997 273.54C40.9397 272.7 40.4597 271.56 40.4597 270.12C40.4597 268.68 40.9397 267.56 41.8997 266.76C42.8997 265.92 44.2397 265.5 45.9197 265.5ZM50.5997 280.32V306.42C50.5997 308.1 50.8797 309.24 51.4397 309.84C52.0397 310.44 53.0397 310.74 54.4397 310.74V312C53.7197 311.96 52.5997 311.92 51.0797 311.88C49.5597 311.8 48.0197 311.76 46.4597 311.76C44.8997 311.76 43.3197 311.8 41.7197 311.88C40.1197 311.92 38.9197 311.96 38.1197 312V310.74C39.5197 310.74 40.4997 310.44 41.0597 309.84C41.6597 309.24 41.9597 308.1 41.9597 306.42V287.52C41.9597 285.72 41.6797 284.4 41.1197 283.56C40.5997 282.68 39.5997 282.24 38.1197 282.24V280.98C39.3997 281.1 40.6397 281.16 41.8397 281.16C43.5197 281.16 45.0797 281.1 46.5197 280.98C47.9997 280.82 49.3597 280.6 50.5997 280.32ZM69.2255 271.14V280.98H76.3055V282.18H69.2255V306.42C69.2255 307.62 69.4455 308.48 69.8855 309C70.3255 309.48 70.9855 309.72 71.8655 309.72C72.5855 309.72 73.3055 309.46 74.0255 308.94C74.7455 308.38 75.3855 307.44 75.9455 306.12L76.9655 306.66C76.3255 308.46 75.3455 309.94 74.0255 311.1C72.7455 312.26 70.9855 312.84 68.7455 312.84C67.4255 312.84 66.2655 312.66 65.2655 312.3C64.2655 311.98 63.4255 311.48 62.7455 310.8C61.8655 309.92 61.2855 308.84 61.0055 307.56C60.7255 306.24 60.5855 304.54 60.5855 302.46V282.18H55.5455V280.98H60.5855V273.06C62.2655 273.06 63.8055 272.92 65.2055 272.64C66.6455 272.32 67.9855 271.82 69.2255 271.14ZM88.62 271.14V280.98H95.7V282.18H88.62V306.42C88.62 307.62 88.84 308.48 89.28 309C89.72 309.48 90.38 309.72 91.26 309.72C91.98 309.72 92.7 309.46 93.42 308.94C94.14 308.38 94.78 307.44 95.34 306.12L96.36 306.66C95.72 308.46 94.74 309.94 93.42 311.1C92.14 312.26 90.38 312.84 88.14 312.84C86.82 312.84 85.66 312.66 84.66 312.3C83.66 311.98 82.82 311.48 82.14 310.8C81.26 309.92 80.68 308.84 80.4 307.56C80.12 306.24 79.98 304.54 79.98 302.46V282.18H74.94V280.98H79.98V273.06C81.66 273.06 83.2 272.92 84.6 272.64C86.04 272.32 87.38 271.82 88.62 271.14ZM109.774 265.02V306.42C109.774 308.1 110.054 309.24 110.614 309.84C111.214 310.44 112.214 310.74 113.614 310.74V312C112.854 311.96 111.714 311.92 110.194 311.88C108.674 311.8 107.134 311.76 105.574 311.76C104.014 311.76 102.434 311.8 100.834 311.88C99.2738 311.92 98.0938 311.96 97.2938 312V310.74C98.6938 310.74 99.6738 310.44 100.234 309.84C100.834 309.24 101.134 308.1 101.134 306.42V272.22C101.134 270.42 100.854 269.1 100.294 268.26C99.7738 267.38 98.7738 266.94 97.2938 266.94V265.68C98.5738 265.8 99.8138 265.86 101.014 265.86C102.654 265.86 104.214 265.8 105.694 265.68C107.174 265.52 108.534 265.3 109.774 265.02ZM131.061 280.14C134.581 280.14 137.341 281.18 139.341 283.26C141.341 285.34 142.341 288.74 142.341 293.46H122.601L122.481 292.32H134.781C134.821 290.36 134.701 288.56 134.421 286.92C134.141 285.24 133.701 283.9 133.101 282.9C132.501 281.9 131.701 281.4 130.701 281.4C129.301 281.4 128.101 282.28 127.101 284.04C126.141 285.8 125.561 288.72 125.361 292.8L125.541 293.16C125.501 293.64 125.461 294.14 125.421 294.66C125.421 295.18 125.421 295.72 125.421 296.28C125.421 299.04 125.801 301.28 126.561 303C127.361 304.72 128.361 305.98 129.561 306.78C130.761 307.54 131.981 307.92 133.221 307.92C134.061 307.92 134.921 307.8 135.801 307.56C136.721 307.28 137.641 306.8 138.561 306.12C139.481 305.4 140.341 304.4 141.141 303.12L142.221 303.48C141.741 305 140.981 306.48 139.941 307.92C138.901 309.36 137.581 310.54 135.981 311.46C134.381 312.38 132.461 312.84 130.221 312.84C127.501 312.84 125.101 312.26 123.021 311.1C120.941 309.94 119.301 308.18 118.101 305.82C116.941 303.46 116.361 300.46 116.361 296.82C116.361 293.1 116.981 290 118.221 287.52C119.501 285.04 121.241 283.2 123.441 282C125.681 280.76 128.221 280.14 131.061 280.14ZM192.519 269.52C192.359 271.28 192.239 272.98 192.159 274.62C192.119 276.26 192.099 277.52 192.099 278.4C192.099 279.2 192.119 279.96 192.159 280.68C192.199 281.4 192.239 282 192.279 282.48H190.899C190.499 279.56 189.879 277.26 189.039 275.58C188.199 273.86 187.099 272.66 185.739 271.98C184.419 271.26 182.859 270.9 181.059 270.9H178.599C177.439 270.9 176.559 271 175.959 271.2C175.359 271.4 174.959 271.8 174.759 272.4C174.559 273 174.459 273.92 174.459 275.16V306.36C174.459 307.6 174.559 308.52 174.759 309.12C174.959 309.72 175.359 310.12 175.959 310.32C176.559 310.52 177.439 310.62 178.599 310.62H181.539C183.339 310.62 184.919 310.24 186.279 309.48C187.679 308.68 188.859 307.34 189.819 305.46C190.819 303.58 191.579 301.04 192.099 297.84H193.479C193.359 299.12 193.299 300.8 193.299 302.88C193.299 303.8 193.319 305.1 193.359 306.78C193.399 308.46 193.519 310.2 193.719 312C191.679 311.92 189.379 311.88 186.819 311.88C184.259 311.84 181.979 311.82 179.979 311.82C178.979 311.82 177.699 311.82 176.139 311.82C174.579 311.82 172.899 311.84 171.099 311.88C169.299 311.88 167.479 311.9 165.639 311.94C163.799 311.94 162.059 311.96 160.419 312V310.8C161.699 310.72 162.659 310.56 163.299 310.32C163.939 310.08 164.359 309.6 164.559 308.88C164.799 308.16 164.919 307.08 164.919 305.64V275.88C164.919 274.4 164.799 273.32 164.559 272.64C164.359 271.92 163.919 271.44 163.239 271.2C162.599 270.92 161.659 270.76 160.419 270.72V269.52C162.059 269.56 163.799 269.6 165.639 269.64C167.479 269.64 169.299 269.66 171.099 269.7C172.899 269.7 174.579 269.7 176.139 269.7C177.699 269.7 178.979 269.7 179.979 269.7C181.819 269.7 183.899 269.7 186.219 269.7C188.579 269.66 190.679 269.6 192.519 269.52ZM183.159 290.04C183.159 290.04 183.159 290.24 183.159 290.64C183.159 291.04 183.159 291.24 183.159 291.24H172.659C172.659 291.24 172.659 291.04 172.659 290.64C172.659 290.24 172.659 290.04 172.659 290.04H183.159ZM184.899 282.12C184.739 284.4 184.659 286.14 184.659 287.34C184.699 288.54 184.719 289.64 184.719 290.64C184.719 291.64 184.739 292.74 184.779 293.94C184.819 295.14 184.919 296.88 185.079 299.16H183.699C183.499 297.76 183.119 296.46 182.559 295.26C182.039 294.06 181.279 293.1 180.279 292.38C179.279 291.62 177.979 291.24 176.379 291.24V290.04C177.579 290.04 178.599 289.8 179.439 289.32C180.279 288.8 180.959 288.14 181.479 287.34C182.039 286.5 182.479 285.62 182.799 284.7C183.119 283.78 183.359 282.92 183.519 282.12H184.899ZM227.19 265.02V305.4C227.19 307.2 227.47 308.54 228.03 309.42C228.59 310.26 229.59 310.68 231.03 310.68V311.94C229.79 311.82 228.55 311.76 227.31 311.76C225.63 311.76 224.05 311.82 222.57 311.94C221.13 312.06 219.79 312.28 218.55 312.6V272.22C218.55 270.42 218.27 269.1 217.71 268.26C217.19 267.38 216.19 266.94 214.71 266.94V265.68C215.99 265.8 217.23 265.86 218.43 265.86C220.07 265.86 221.63 265.8 223.11 265.68C224.59 265.52 225.95 265.3 227.19 265.02ZM211.89 280.14C213.65 280.14 215.19 280.44 216.51 281.04C217.87 281.6 218.93 282.56 219.69 283.92L218.97 284.58C218.45 283.62 217.75 282.94 216.87 282.54C216.03 282.1 215.13 281.88 214.17 281.88C212.13 281.88 210.51 283.08 209.31 285.48C208.11 287.84 207.53 291.5 207.57 296.46C207.57 299.86 207.79 302.58 208.23 304.62C208.71 306.62 209.37 308.06 210.21 308.94C211.09 309.82 212.09 310.26 213.21 310.26C214.57 310.26 215.79 309.72 216.87 308.64C217.95 307.56 218.53 306.1 218.61 304.26L218.91 306.36C218.31 308.48 217.33 310.1 215.97 311.22C214.65 312.3 212.91 312.84 210.75 312.84C208.39 312.84 206.27 312.26 204.39 311.1C202.55 309.94 201.11 308.16 200.07 305.76C199.03 303.32 198.51 300.18 198.51 296.34C198.51 292.7 199.09 289.7 200.25 287.34C201.41 284.94 202.99 283.14 204.99 281.94C207.03 280.74 209.33 280.14 211.89 280.14ZM249.01 280.14C252.53 280.14 255.29 281.18 257.29 283.26C259.29 285.34 260.29 288.74 260.29 293.46H240.55L240.43 292.32H252.73C252.77 290.36 252.65 288.56 252.37 286.92C252.09 285.24 251.65 283.9 251.05 282.9C250.45 281.9 249.65 281.4 248.65 281.4C247.25 281.4 246.05 282.28 245.05 284.04C244.09 285.8 243.51 288.72 243.31 292.8L243.49 293.16C243.45 293.64 243.41 294.14 243.37 294.66C243.37 295.18 243.37 295.72 243.37 296.28C243.37 299.04 243.75 301.28 244.51 303C245.31 304.72 246.31 305.98 247.51 306.78C248.71 307.54 249.93 307.92 251.17 307.92C252.01 307.92 252.87 307.8 253.75 307.56C254.67 307.28 255.59 306.8 256.51 306.12C257.43 305.4 258.29 304.4 259.09 303.12L260.17 303.48C259.69 305 258.93 306.48 257.89 307.92C256.85 309.36 255.53 310.54 253.93 311.46C252.33 312.38 250.41 312.84 248.17 312.84C245.45 312.84 243.05 312.26 240.97 311.1C238.89 309.94 237.25 308.18 236.05 305.82C234.89 303.46 234.31 300.46 234.31 296.82C234.31 293.1 234.93 290 236.17 287.52C237.45 285.04 239.19 283.2 241.39 282C243.63 280.76 246.17 280.14 249.01 280.14ZM285.733 280.14C287.413 280.14 288.773 280.36 289.813 280.8C290.893 281.2 291.733 281.76 292.333 282.48C292.973 283.24 293.433 284.22 293.713 285.42C294.033 286.62 294.193 288.24 294.193 290.28V306.42C294.193 308.1 294.473 309.24 295.033 309.84C295.633 310.44 296.633 310.74 298.033 310.74V312C297.273 311.96 296.133 311.92 294.613 311.88C293.093 311.8 291.593 311.76 290.113 311.76C288.593 311.76 287.093 311.8 285.613 311.88C284.173 311.92 283.073 311.96 282.313 312V310.74C283.513 310.74 284.353 310.44 284.833 309.84C285.313 309.24 285.553 308.1 285.553 306.42V287.76C285.553 286.76 285.453 285.9 285.253 285.18C285.053 284.42 284.693 283.84 284.173 283.44C283.653 283 282.873 282.78 281.833 282.78C280.753 282.78 279.753 283.08 278.833 283.68C277.953 284.28 277.233 285.12 276.673 286.2C276.153 287.24 275.893 288.42 275.893 289.74V306.42C275.893 308.1 276.133 309.24 276.613 309.84C277.133 310.44 277.973 310.74 279.133 310.74V312C278.413 311.96 277.353 311.92 275.953 311.88C274.593 311.8 273.173 311.76 271.693 311.76C270.173 311.76 268.613 311.8 267.013 311.88C265.413 311.92 264.213 311.96 263.413 312V310.74C264.813 310.74 265.793 310.44 266.353 309.84C266.953 309.24 267.253 308.1 267.253 306.42V287.52C267.253 285.72 266.973 284.4 266.413 283.56C265.893 282.68 264.893 282.24 263.413 282.24V280.98C264.693 281.1 265.933 281.16 267.133 281.16C268.813 281.16 270.373 281.1 271.813 280.98C273.293 280.82 274.653 280.6 275.893 280.32V285.72C276.893 283.68 278.253 282.24 279.973 281.4C281.693 280.56 283.613 280.14 285.733 280.14ZM312.148 280.14C313.828 280.14 315.288 280.36 316.528 280.8C317.808 281.2 318.728 281.6 319.288 282C320.648 282.92 321.488 282.32 321.808 280.2H323.068C322.988 281.32 322.928 282.7 322.888 284.34C322.848 285.94 322.828 288.08 322.828 290.76H321.568C321.368 289.28 320.988 287.82 320.428 286.38C319.868 284.94 319.048 283.76 317.968 282.84C316.928 281.92 315.568 281.46 313.888 281.46C312.728 281.46 311.748 281.8 310.948 282.48C310.148 283.12 309.748 284.06 309.748 285.3C309.748 286.5 310.108 287.56 310.828 288.48C311.548 289.36 312.468 290.22 313.588 291.06C314.748 291.86 315.948 292.72 317.188 293.64C318.508 294.64 319.708 295.64 320.788 296.64C321.868 297.6 322.728 298.66 323.368 299.82C324.008 300.98 324.328 302.36 324.328 303.96C324.328 305.76 323.808 307.34 322.768 308.7C321.728 310.02 320.348 311.04 318.628 311.76C316.948 312.48 315.068 312.84 312.988 312.84C311.788 312.84 310.708 312.72 309.748 312.48C308.828 312.24 308.028 311.94 307.348 311.58C306.828 311.34 306.328 311.12 305.848 310.92C305.408 310.68 304.988 310.48 304.588 310.32C304.188 310.2 303.828 310.34 303.508 310.74C303.228 311.14 303.008 311.7 302.848 312.42H301.588C301.668 311.14 301.728 309.58 301.768 307.74C301.808 305.9 301.828 303.46 301.828 300.42H303.088C303.328 302.58 303.768 304.5 304.408 306.18C305.048 307.82 305.908 309.12 306.988 310.08C308.108 311 309.508 311.46 311.188 311.46C311.868 311.46 312.528 311.32 313.168 311.04C313.808 310.76 314.328 310.3 314.728 309.66C315.168 309.02 315.388 308.2 315.388 307.2C315.388 305.44 314.808 303.98 313.648 302.82C312.528 301.66 311.088 300.4 309.328 299.04C308.048 298 306.828 296.98 305.668 295.98C304.548 294.94 303.628 293.82 302.908 292.62C302.188 291.38 301.828 289.98 301.828 288.42C301.828 286.62 302.308 285.1 303.268 283.86C304.228 282.62 305.488 281.7 307.048 281.1C308.648 280.46 310.348 280.14 312.148 280.14Z" fill="black"/>
<path d="M243.344 93.6828C242.813 95.3637 242.566 113.063 243.05 114.302C243.648 115.894 244.215 115.909 249.635 116.059C250.408 116.081 251.089 116.086 251.699 116.086C255.117 116.086 256.03 115.785 256.415 115.506C257.338 114.845 257.444 113.662 257.444 103.978V92.9696L250.467 92.8042C244.741 92.7006 243.606 92.8314 243.344 93.6829L243.344 93.6828ZM253.103 96.7976V111.87H247.103V96.7976H253.103ZM243.344 128.483C242.813 130.164 242.566 147.863 243.05 149.102C243.648 150.694 244.215 150.709 249.635 150.86C250.403 150.882 251.087 150.887 251.686 150.887C255.115 150.887 256.028 150.583 256.41 150.302C257.333 149.64 257.44 148.458 257.44 138.773V127.77L250.462 127.605C244.731 127.496 243.603 127.63 243.344 128.484L243.344 128.483ZM253.103 131.593V146.671H247.103V131.593H253.103ZM69.6974 128.501C68.9718 128.019 60.1085 127.755 59.0003 128.469C58.8028 128.614 58.4351 128.886 58.4351 135.903C58.4351 142.115 58.5017 142.945 59.6691 143.633C60.3602 144.006 62.5568 144.193 64.751 144.193C67.0045 144.193 69.2529 143.996 69.8502 143.608C70.6918 143.043 70.8054 141.977 70.64 135.994C70.4747 128.95 70.0082 128.681 69.6972 128.501L69.6974 128.501ZM66.5036 132.6V140.108H62.5225V132.6H66.5036ZM164.572 199.058C164.7 199.085 164.826 199.1 164.955 199.1C166.058 199.1 167.297 198.102 169.424 196.049C175.726 190 178.766 182.847 178.712 174.174C178.658 168.366 177.53 164.015 174.81 159.14C173.894 157.524 173.048 156.421 171.905 156.285C170.658 156.105 169.498 157.141 168.059 158.686V158.689C163.508 163.652 160.48 170.237 159.303 177.721C158.446 182.968 159.187 188.625 161.504 194.546C162.664 197.463 163.385 198.806 164.572 199.058L164.572 199.058ZM165.695 193.803C165.456 193.299 164.905 191.91 164.414 190.212C161.852 181.887 163.911 170.987 169.425 163.709C170.061 162.87 170.933 161.72 171.071 161.606C171.088 161.621 171.145 161.67 171.31 161.9C171.606 162.273 172.27 163.684 172.993 165.491C175.501 172.182 175.057 179.288 171.705 186.046C169.945 189.565 166.682 193.326 165.695 193.803L165.695 193.803ZM94.9096 128.502C94.184 128.021 85.3384 127.749 84.2176 128.47V128.467C84.0201 128.615 83.6474 128.889 83.6474 135.904C83.6474 142.116 83.7141 142.946 84.8815 143.634C85.5726 144.007 87.7692 144.194 89.9634 144.194C92.2168 144.194 94.4653 143.997 95.0626 143.609C95.9042 143.044 96.0177 141.978 95.8524 135.995C95.6919 128.951 95.2033 128.672 94.9095 128.502L94.9096 128.502ZM91.7183 132.601V140.11H87.7372V132.601H91.7183ZM69.6954 98.2424C68.9698 97.7611 60.1065 97.497 58.9982 98.2103C58.8008 98.3559 58.433 98.6274 58.433 105.645C58.433 111.857 58.4997 112.687 59.6671 113.375C60.3582 113.747 62.5548 113.935 64.749 113.935C67.0024 113.935 69.2509 113.737 69.8482 113.35C70.6898 112.787 70.8034 111.716 70.638 105.73C70.4726 98.6791 70.0037 98.4175 69.6952 98.2419L69.6954 98.2424ZM66.5016 102.342V109.85H62.5205V102.342H66.5016ZM59.1615 82.6095C59.8526 82.9822 62.0492 83.1698 64.2434 83.1698C66.4968 83.1698 68.7453 82.9723 69.3425 82.5848C70.1842 82.0221 70.2977 80.9509 70.1324 74.9654C69.9695 67.9166 69.498 67.655 69.192 67.4793C68.4664 66.998 59.5734 66.7265 58.4923 67.4472C58.3121 67.5855 57.9296 67.8718 57.9296 74.8815C57.9271 81.0938 57.9938 81.9234 59.1612 82.609L59.1615 82.6095ZM62.0146 79.0899V71.5817H65.9982V79.0899H62.0146ZM290.471 158.298C290.471 157.39 290.549 67.4135 290.13 66.7184C289.92 66.4025 289.634 65.9755 267.445 65.9755H246.088V34.0819C246.088 2.88712 245.827 1.17167 245.328 0.675671C244.773 0.115402 242.774 -0.0425481 231.48 0.00926309C224.445 0.107989 210.081 0.211648 199.71 0.261014C181.278 0.458465 180.345 0.65839 179.955 1.30501C179.476 2.02569 179.463 62.5794 179.463 69.481V136.014L179.022 135.893C170.933 133.724 149.671 133.529 139.788 135.533C137.823 135.96 136.068 136.318 135.244 136.486C135.177 134.215 135.135 125.135 135.135 112.754C135.135 89.3165 134.859 87.905 134.375 87.4185C133.859 86.8977 131.937 86.6509 116.602 86.6509H100.337L100.085 44.2163L98.4441 43.7572C97.3828 43.4536 73.3182 43.3573 65.9685 43.3327C34.5267 43.2932 34.4926 43.4067 34.0459 44.4507C33.7941 45.1936 33.7176 113.859 33.7176 146.993L33.7151 248.031H20.2291C7.92264 248.031 5.80028 248.211 4.86957 248.853C4.0205 249.532 3.68732 250.109 4.35372 251.225C5.0818 252.343 5.09665 252.365 80.2445 252.528C93.7849 252.55 104.889 252.56 114.006 252.56C153.472 252.56 155.642 252.34 156.152 251.775C157.32 250.353 157.512 230.917 156.878 223.554C155.15 203.856 150.777 193.419 140.166 183.674C135.588 179.456 127.682 175.154 120.939 173.214C115.114 171.526 113.834 171.272 112.54 174.12C111.824 175.776 111.642 177.859 111.642 184.264C111.642 191.037 111.82 192.865 112.819 196.514C115.342 205.288 120.164 213.579 126.764 220.487C132.196 226.168 135.514 229.315 141.388 232.099C145.199 234.007 146.319 234.414 147.541 233.797C148.815 233.062 148.864 232.183 148.864 228.592C148.81 220.193 146.351 211.135 142.284 204.365C140.295 201.033 136.622 195.435 134.366 195.435C134.013 195.435 132.937 195.435 132.555 196.232C132.113 197.152 132.821 198.577 135.164 201.494C140.566 208.2 143.928 216.836 144.631 225.817L144.868 228.942L143.696 228.461C137.871 226.062 130.225 218.847 125.409 212.393C122.008 207.768 118.358 200.472 116.921 195.417C115.907 191.819 115.729 190.098 115.729 183.911C115.729 180.075 115.86 177.439 115.974 176.647C117.4 176.704 124.079 178.834 128.07 180.803C140.917 187.25 148.61 198.228 151.589 214.36C152.791 220.992 152.811 245.89 151.918 248.122C149.479 248.727 119.854 248.507 88.1202 248.181L56.4686 247.885V243.822C56.4686 232.536 59.1392 218.963 63.7968 206.593C77.147 170.923 107.772 145.178 143.719 139.403C162.661 136.369 182.064 139.242 199.839 147.678C207.493 151.329 210.709 153.274 217.955 158.615C243.328 177.548 260.02 209.649 261.518 242.391L261.797 248.542L172.321 248.537L172.608 238.089C173.111 219.885 175.424 211.194 182.14 202.333C184.818 198.678 190.993 193.635 195.1 191.758C197.983 190.385 201.873 189.521 202.707 189.674C203.057 190.802 202.778 197.511 201.915 201.815C199.508 213.443 195.734 221.985 189.692 227.274C187.802 228.965 181.53 233.375 180.202 233.378H180.13C180.12 232.911 180.343 231.589 180.691 229.545L180.799 228.901C182.169 221.262 184.575 215.706 188.601 210.893C190.154 209.047 190.739 207.695 190.381 206.762C190.233 206.377 189.852 205.883 188.865 205.74C187.722 205.569 186.678 206.589 185.054 208.613C179.955 215.05 176.781 223.604 176.117 232.709C175.809 236.903 175.784 237.241 177.504 237.878C179.506 238.687 185.777 235.56 189.726 232.546C200.305 224.476 206.742 209.566 206.947 192.699C206.974 188.873 206.989 187.13 206.031 186.225C205.192 185.432 203.773 185.521 201.64 185.662C191.015 186.378 177.899 197.338 172.99 209.596C169.53 218.3 168.362 226.265 168.362 241.166C168.362 249.908 168.565 251.396 169.268 251.969C169.791 252.386 173.479 252.613 246.612 252.542C246.612 252.542 303.947 252.388 321.416 252.388C325.506 252.388 324.18 248.807 321.307 248.807C311.8 248.807 290.461 248.553 290.461 248.553L290.471 158.298ZM240.883 174.812C236.006 168.578 226.625 159.367 220.808 155.097L216.891 152.227L216.841 70.5733H286.389V122.392C286.389 152.015 286.228 192.173 286.036 211.905L285.739 248.545H266.392L266.071 243.1C264.649 217.345 256.179 194.374 240.886 174.817L240.883 174.812ZM241.498 65.9773H228.007C215.173 65.9773 213.524 66.2216 213.008 66.7424C212.51 67.2409 212.248 69.3315 212.248 108.725C212.248 130.842 212.11 145.651 211.969 148.929C211.315 148.593 210.155 147.964 208.556 147.046C203.049 143.906 196.087 140.878 189.445 138.731L184.062 136.983V4.51071H242.15L241.856 20.2108C241.661 28.886 241.503 42.9155 241.503 51.4896V65.9803L241.498 65.9773ZM96.4644 89.449L97.2666 90.9941L130.545 91.2458V137.645L125.507 139.385C92.5128 150.775 66.7847 178.545 56.6802 213.671C53.8468 223.44 51.8674 236.481 51.8674 245.391V248.034H38.3048V47.8789H95.7458V67.619C95.7458 85.2462 95.9556 88.4919 96.4615 89.4498L96.4644 89.449Z" fill="black"/>
</svg>
