<svg width="327" height="327" viewBox="0 0 327 327" fill="none" xmlns="http://www.w3.org/2000/svg">
<path d="M20.94 269.52V270.72C19.58 270.76 18.54 270.92 17.82 271.2C17.14 271.44 16.68 271.92 16.44 272.64C16.2 273.32 16.08 274.4 16.08 275.88V306.36C16.08 307.6 16.16 308.52 16.32 309.12C16.52 309.72 16.88 310.12 17.4 310.32C17.96 310.52 18.78 310.62 19.86 310.62H22.8C24.16 310.62 25.44 310.3 26.64 309.66C27.84 309.02 28.92 308.12 29.88 306.96C30.84 305.76 31.64 304.34 32.28 302.7C32.92 301.06 33.4 299.24 33.72 297.24H35.1C34.98 298.6 34.92 300.36 34.92 302.52C34.92 303.44 34.94 304.78 34.98 306.54C35.02 308.3 35.14 310.12 35.34 312C33.3 311.92 31 311.88 28.44 311.88C25.88 311.84 23.6 311.82 21.6 311.82C20.6 311.82 19.32 311.82 17.76 311.82C16.2 311.82 14.52 311.84 12.72 311.88C10.92 311.88 9.1 311.9 7.26 311.94C5.42 311.94 3.68 311.96 2.04 312V310.8C3.32 310.72 4.28 310.56 4.92 310.32C5.56 310.08 5.98 309.6 6.18 308.88C6.42 308.16 6.54 307.08 6.54 305.64V275.88C6.54 274.4 6.42 273.32 6.18 272.64C5.98 271.92 5.54 271.44 4.86 271.2C4.22 270.92 3.28 270.76 2.04 270.72V269.52C3.04 269.56 4.38 269.6 6.06 269.64C7.78 269.68 9.6 269.7 11.52 269.7C13.28 269.7 15 269.68 16.68 269.64C18.4 269.6 19.82 269.56 20.94 269.52ZM45.9197 265.5C47.5997 265.5 48.9197 265.92 49.8797 266.76C50.8797 267.56 51.3797 268.68 51.3797 270.12C51.3797 271.56 50.8797 272.7 49.8797 273.54C48.9197 274.34 47.5997 274.74 45.9197 274.74C44.2397 274.74 42.8997 274.34 41.8997 273.54C40.9397 272.7 40.4597 271.56 40.4597 270.12C40.4597 268.68 40.9397 267.56 41.8997 266.76C42.8997 265.92 44.2397 265.5 45.9197 265.5ZM50.5997 280.32V306.42C50.5997 308.1 50.8797 309.24 51.4397 309.84C52.0397 310.44 53.0397 310.74 54.4397 310.74V312C53.7197 311.96 52.5997 311.92 51.0797 311.88C49.5597 311.8 48.0197 311.76 46.4597 311.76C44.8997 311.76 43.3197 311.8 41.7197 311.88C40.1197 311.92 38.9197 311.96 38.1197 312V310.74C39.5197 310.74 40.4997 310.44 41.0597 309.84C41.6597 309.24 41.9597 308.1 41.9597 306.42V287.52C41.9597 285.72 41.6797 284.4 41.1197 283.56C40.5997 282.68 39.5997 282.24 38.1197 282.24V280.98C39.3997 281.1 40.6397 281.16 41.8397 281.16C43.5197 281.16 45.0797 281.1 46.5197 280.98C47.9997 280.82 49.3597 280.6 50.5997 280.32ZM69.2255 271.14V280.98H76.3055V282.18H69.2255V306.42C69.2255 307.62 69.4455 308.48 69.8855 309C70.3255 309.48 70.9855 309.72 71.8655 309.72C72.5855 309.72 73.3055 309.46 74.0255 308.94C74.7455 308.38 75.3855 307.44 75.9455 306.12L76.9655 306.66C76.3255 308.46 75.3455 309.94 74.0255 311.1C72.7455 312.26 70.9855 312.84 68.7455 312.84C67.4255 312.84 66.2655 312.66 65.2655 312.3C64.2655 311.98 63.4255 311.48 62.7455 310.8C61.8655 309.92 61.2855 308.84 61.0055 307.56C60.7255 306.24 60.5855 304.54 60.5855 302.46V282.18H55.5455V280.98H60.5855V273.06C62.2655 273.06 63.8055 272.92 65.2055 272.64C66.6455 272.32 67.9855 271.82 69.2255 271.14ZM88.62 271.14V280.98H95.7V282.18H88.62V306.42C88.62 307.62 88.84 308.48 89.28 309C89.72 309.48 90.38 309.72 91.26 309.72C91.98 309.72 92.7 309.46 93.42 308.94C94.14 308.38 94.78 307.44 95.34 306.12L96.36 306.66C95.72 308.46 94.74 309.94 93.42 311.1C92.14 312.26 90.38 312.84 88.14 312.84C86.82 312.84 85.66 312.66 84.66 312.3C83.66 311.98 82.82 311.48 82.14 310.8C81.26 309.92 80.68 308.84 80.4 307.56C80.12 306.24 79.98 304.54 79.98 302.46V282.18H74.94V280.98H79.98V273.06C81.66 273.06 83.2 272.92 84.6 272.64C86.04 272.32 87.38 271.82 88.62 271.14ZM109.774 265.02V306.42C109.774 308.1 110.054 309.24 110.614 309.84C111.214 310.44 112.214 310.74 113.614 310.74V312C112.854 311.96 111.714 311.92 110.194 311.88C108.674 311.8 107.134 311.76 105.574 311.76C104.014 311.76 102.434 311.8 100.834 311.88C99.2738 311.92 98.0938 311.96 97.2938 312V310.74C98.6938 310.74 99.6738 310.44 100.234 309.84C100.834 309.24 101.134 308.1 101.134 306.42V272.22C101.134 270.42 100.854 269.1 100.294 268.26C99.7738 267.38 98.7738 266.94 97.2938 266.94V265.68C98.5738 265.8 99.8138 265.86 101.014 265.86C102.654 265.86 104.214 265.8 105.694 265.68C107.174 265.52 108.534 265.3 109.774 265.02ZM131.061 280.14C134.581 280.14 137.341 281.18 139.341 283.26C141.341 285.34 142.341 288.74 142.341 293.46H122.601L122.481 292.32H134.781C134.821 290.36 134.701 288.56 134.421 286.92C134.141 285.24 133.701 283.9 133.101 282.9C132.501 281.9 131.701 281.4 130.701 281.4C129.301 281.4 128.101 282.28 127.101 284.04C126.141 285.8 125.561 288.72 125.361 292.8L125.541 293.16C125.501 293.64 125.461 294.14 125.421 294.66C125.421 295.18 125.421 295.72 125.421 296.28C125.421 299.04 125.801 301.28 126.561 303C127.361 304.72 128.361 305.98 129.561 306.78C130.761 307.54 131.981 307.92 133.221 307.92C134.061 307.92 134.921 307.8 135.801 307.56C136.721 307.28 137.641 306.8 138.561 306.12C139.481 305.4 140.341 304.4 141.141 303.12L142.221 303.48C141.741 305 140.981 306.48 139.941 307.92C138.901 309.36 137.581 310.54 135.981 311.46C134.381 312.38 132.461 312.84 130.221 312.84C127.501 312.84 125.101 312.26 123.021 311.1C120.941 309.94 119.301 308.18 118.101 305.82C116.941 303.46 116.361 300.46 116.361 296.82C116.361 293.1 116.981 290 118.221 287.52C119.501 285.04 121.241 283.2 123.441 282C125.681 280.76 128.221 280.14 131.061 280.14ZM192.519 269.52C192.359 271.28 192.239 272.98 192.159 274.62C192.119 276.26 192.099 277.52 192.099 278.4C192.099 279.2 192.119 279.96 192.159 280.68C192.199 281.4 192.239 282 192.279 282.48H190.899C190.499 279.56 189.879 277.26 189.039 275.58C188.199 273.86 187.099 272.66 185.739 271.98C184.419 271.26 182.859 270.9 181.059 270.9H178.599C177.439 270.9 176.559 271 175.959 271.2C175.359 271.4 174.959 271.8 174.759 272.4C174.559 273 174.459 273.92 174.459 275.16V306.36C174.459 307.6 174.559 308.52 174.759 309.12C174.959 309.72 175.359 310.12 175.959 310.32C176.559 310.52 177.439 310.62 178.599 310.62H181.539C183.339 310.62 184.919 310.24 186.279 309.48C187.679 308.68 188.859 307.34 189.819 305.46C190.819 303.58 191.579 301.04 192.099 297.84H193.479C193.359 299.12 193.299 300.8 193.299 302.88C193.299 303.8 193.319 305.1 193.359 306.78C193.399 308.46 193.519 310.2 193.719 312C191.679 311.92 189.379 311.88 186.819 311.88C184.259 311.84 181.979 311.82 179.979 311.82C178.979 311.82 177.699 311.82 176.139 311.82C174.579 311.82 172.899 311.84 171.099 311.88C169.299 311.88 167.479 311.9 165.639 311.94C163.799 311.94 162.059 311.96 160.419 312V310.8C161.699 310.72 162.659 310.56 163.299 310.32C163.939 310.08 164.359 309.6 164.559 308.88C164.799 308.16 164.919 307.08 164.919 305.64V275.88C164.919 274.4 164.799 273.32 164.559 272.64C164.359 271.92 163.919 271.44 163.239 271.2C162.599 270.92 161.659 270.76 160.419 270.72V269.52C162.059 269.56 163.799 269.6 165.639 269.64C167.479 269.64 169.299 269.66 171.099 269.7C172.899 269.7 174.579 269.7 176.139 269.7C177.699 269.7 178.979 269.7 179.979 269.7C181.819 269.7 183.899 269.7 186.219 269.7C188.579 269.66 190.679 269.6 192.519 269.52ZM183.159 290.04C183.159 290.04 183.159 290.24 183.159 290.64C183.159 291.04 183.159 291.24 183.159 291.24H172.659C172.659 291.24 172.659 291.04 172.659 290.64C172.659 290.24 172.659 290.04 172.659 290.04H183.159ZM184.899 282.12C184.739 284.4 184.659 286.14 184.659 287.34C184.699 288.54 184.719 289.64 184.719 290.64C184.719 291.64 184.739 292.74 184.779 293.94C184.819 295.14 184.919 296.88 185.079 299.16H183.699C183.499 297.76 183.119 296.46 182.559 295.26C182.039 294.06 181.279 293.1 180.279 292.38C179.279 291.62 177.979 291.24 176.379 291.24V290.04C177.579 290.04 178.599 289.8 179.439 289.32C180.279 288.8 180.959 288.14 181.479 287.34C182.039 286.5 182.479 285.62 182.799 284.7C183.119 283.78 183.359 282.92 183.519 282.12H184.899ZM227.19 265.02V305.4C227.19 307.2 227.47 308.54 228.03 309.42C228.59 310.26 229.59 310.68 231.03 310.68V311.94C229.79 311.82 228.55 311.76 227.31 311.76C225.63 311.76 224.05 311.82 222.57 311.94C221.13 312.06 219.79 312.28 218.55 312.6V272.22C218.55 270.42 218.27 269.1 217.71 268.26C217.19 267.38 216.19 266.94 214.71 266.94V265.68C215.99 265.8 217.23 265.86 218.43 265.86C220.07 265.86 221.63 265.8 223.11 265.68C224.59 265.52 225.95 265.3 227.19 265.02ZM211.89 280.14C213.65 280.14 215.19 280.44 216.51 281.04C217.87 281.6 218.93 282.56 219.69 283.92L218.97 284.58C218.45 283.62 217.75 282.94 216.87 282.54C216.03 282.1 215.13 281.88 214.17 281.88C212.13 281.88 210.51 283.08 209.31 285.48C208.11 287.84 207.53 291.5 207.57 296.46C207.57 299.86 207.79 302.58 208.23 304.62C208.71 306.62 209.37 308.06 210.21 308.94C211.09 309.82 212.09 310.26 213.21 310.26C214.57 310.26 215.79 309.72 216.87 308.64C217.95 307.56 218.53 306.1 218.61 304.26L218.91 306.36C218.31 308.48 217.33 310.1 215.97 311.22C214.65 312.3 212.91 312.84 210.75 312.84C208.39 312.84 206.27 312.26 204.39 311.1C202.55 309.94 201.11 308.16 200.07 305.76C199.03 303.32 198.51 300.18 198.51 296.34C198.51 292.7 199.09 289.7 200.25 287.34C201.41 284.94 202.99 283.14 204.99 281.94C207.03 280.74 209.33 280.14 211.89 280.14ZM249.01 280.14C252.53 280.14 255.29 281.18 257.29 283.26C259.29 285.34 260.29 288.74 260.29 293.46H240.55L240.43 292.32H252.73C252.77 290.36 252.65 288.56 252.37 286.92C252.09 285.24 251.65 283.9 251.05 282.9C250.45 281.9 249.65 281.4 248.65 281.4C247.25 281.4 246.05 282.28 245.05 284.04C244.09 285.8 243.51 288.72 243.31 292.8L243.49 293.16C243.45 293.64 243.41 294.14 243.37 294.66C243.37 295.18 243.37 295.72 243.37 296.28C243.37 299.04 243.75 301.28 244.51 303C245.31 304.72 246.31 305.98 247.51 306.78C248.71 307.54 249.93 307.92 251.17 307.92C252.01 307.92 252.87 307.8 253.75 307.56C254.67 307.28 255.59 306.8 256.51 306.12C257.43 305.4 258.29 304.4 259.09 303.12L260.17 303.48C259.69 305 258.93 306.48 257.89 307.92C256.85 309.36 255.53 310.54 253.93 311.46C252.33 312.38 250.41 312.84 248.17 312.84C245.45 312.84 243.05 312.26 240.97 311.1C238.89 309.94 237.25 308.18 236.05 305.82C234.89 303.46 234.31 300.46 234.31 296.82C234.31 293.1 234.93 290 236.17 287.52C237.45 285.04 239.19 283.2 241.39 282C243.63 280.76 246.17 280.14 249.01 280.14ZM285.733 280.14C287.413 280.14 288.773 280.36 289.813 280.8C290.893 281.2 291.733 281.76 292.333 282.48C292.973 283.24 293.433 284.22 293.713 285.42C294.033 286.62 294.193 288.24 294.193 290.28V306.42C294.193 308.1 294.473 309.24 295.033 309.84C295.633 310.44 296.633 310.74 298.033 310.74V312C297.273 311.96 296.133 311.92 294.613 311.88C293.093 311.8 291.593 311.76 290.113 311.76C288.593 311.76 287.093 311.8 285.613 311.88C284.173 311.92 283.073 311.96 282.313 312V310.74C283.513 310.74 284.353 310.44 284.833 309.84C285.313 309.24 285.553 308.1 285.553 306.42V287.76C285.553 286.76 285.453 285.9 285.253 285.18C285.053 284.42 284.693 283.84 284.173 283.44C283.653 283 282.873 282.78 281.833 282.78C280.753 282.78 279.753 283.08 278.833 283.68C277.953 284.28 277.233 285.12 276.673 286.2C276.153 287.24 275.893 288.42 275.893 289.74V306.42C275.893 308.1 276.133 309.24 276.613 309.84C277.133 310.44 277.973 310.74 279.133 310.74V312C278.413 311.96 277.353 311.92 275.953 311.88C274.593 311.8 273.173 311.76 271.693 311.76C270.173 311.76 268.613 311.8 267.013 311.88C265.413 311.92 264.213 311.96 263.413 312V310.74C264.813 310.74 265.793 310.44 266.353 309.84C266.953 309.24 267.253 308.1 267.253 306.42V287.52C267.253 285.72 266.973 284.4 266.413 283.56C265.893 282.68 264.893 282.24 263.413 282.24V280.98C264.693 281.1 265.933 281.16 267.133 281.16C268.813 281.16 270.373 281.1 271.813 280.98C273.293 280.82 274.653 280.6 275.893 280.32V285.72C276.893 283.68 278.253 282.24 279.973 281.4C281.693 280.56 283.613 280.14 285.733 280.14ZM312.148 280.14C313.828 280.14 315.288 280.36 316.528 280.8C317.808 281.2 318.728 281.6 319.288 282C320.648 282.92 321.488 282.32 321.808 280.2H323.068C322.988 281.32 322.928 282.7 322.888 284.34C322.848 285.94 322.828 288.08 322.828 290.76H321.568C321.368 289.28 320.988 287.82 320.428 286.38C319.868 284.94 319.048 283.76 317.968 282.84C316.928 281.92 315.568 281.46 313.888 281.46C312.728 281.46 311.748 281.8 310.948 282.48C310.148 283.12 309.748 284.06 309.748 285.3C309.748 286.5 310.108 287.56 310.828 288.48C311.548 289.36 312.468 290.22 313.588 291.06C314.748 291.86 315.948 292.72 317.188 293.64C318.508 294.64 319.708 295.64 320.788 296.64C321.868 297.6 322.728 298.66 323.368 299.82C324.008 300.98 324.328 302.36 324.328 303.96C324.328 305.76 323.808 307.34 322.768 308.7C321.728 310.02 320.348 311.04 318.628 311.76C316.948 312.48 315.068 312.84 312.988 312.84C311.788 312.84 310.708 312.72 309.748 312.48C308.828 312.24 308.028 311.94 307.348 311.58C306.828 311.34 306.328 311.12 305.848 310.92C305.408 310.68 304.988 310.48 304.588 310.32C304.188 310.2 303.828 310.34 303.508 310.74C303.228 311.14 303.008 311.7 302.848 312.42H301.588C301.668 311.14 301.728 309.58 301.768 307.74C301.808 305.9 301.828 303.46 301.828 300.42H303.088C303.328 302.58 303.768 304.5 304.408 306.18C305.048 307.82 305.908 309.12 306.988 310.08C308.108 311 309.508 311.46 311.188 311.46C311.868 311.46 312.528 311.32 313.168 311.04C313.808 310.76 314.328 310.3 314.728 309.66C315.168 309.02 315.388 308.2 315.388 307.2C315.388 305.44 314.808 303.98 313.648 302.82C312.528 301.66 311.088 300.4 309.328 299.04C308.048 298 306.828 296.98 305.668 295.98C304.548 294.94 303.628 293.82 302.908 292.62C302.188 291.38 301.828 289.98 301.828 288.42C301.828 286.62 302.308 285.1 303.268 283.86C304.228 282.62 305.488 281.7 307.048 281.1C308.648 280.46 310.348 280.14 312.148 280.14Z" fill="black"/>
<path d="M198.202 215.951C198.455 216.248 198.366 216.91 198.344 217.034C197.853 220.648 196.114 225.671 194.512 228.89C192.577 232.803 190.109 234.825 187.098 237.122C182.131 240.901 170.27 242.422 167.056 240.137C166.826 239.974 167.82 232.231 170.491 227.781C173.212 223.247 178.636 219.133 181.121 218.198C184.296 217 187.351 216.288 191.027 215.894C191.092 215.881 197.598 215.229 198.203 215.951L198.202 215.951ZM125.662 215.889C125.598 215.881 119.092 215.226 118.487 215.948C118.234 216.246 118.323 216.908 118.345 217.032C118.836 220.646 120.575 225.668 122.177 228.887C124.112 232.801 126.58 234.822 129.591 237.119C134.558 240.899 146.419 242.419 149.633 240.135C149.863 239.971 148.869 232.228 146.198 227.779C143.477 223.245 138.053 219.13 135.568 218.195C132.393 216.995 129.335 216.283 125.662 215.889L125.662 215.889ZM324 250.378C324 251.082 323.648 251.715 323.015 252.139C322.418 252.563 321.607 252.771 320.553 252.771C303.169 252.771 246.165 252.912 246.165 252.912C197.179 252.984 179.517 252.878 172.901 252.667C158.508 252.878 137.359 252.947 114.277 252.947C105.199 252.947 94.1845 252.947 80.7051 252.912C5.46645 252.739 5.46646 252.739 4.48232 251.223C3.42574 249.428 4.30871 248.408 5.18671 247.704C6.3499 246.893 8.07365 246.685 21.0224 246.685H33.5495L33.547 147.059C33.547 130.168 33.5817 45.8515 33.9339 44.8039C34.673 43.0802 34.673 43.0802 66.5208 43.1148C87.2822 43.1868 98.2251 43.3257 99.0359 43.5737L101.323 44.2061L101.568 86.188H116.876C134.153 86.188 134.468 86.5055 135.172 87.2074C135.911 87.9465 136.156 88.2268 136.156 113.036C136.156 123.874 136.191 132.215 136.263 135.556C137.176 135.383 138.411 135.097 139.748 134.817C149.425 132.848 169.907 132.987 178.493 135.028V69.9926C178.493 2.63973 178.917 2.00481 179.125 1.69369C179.758 0.637115 179.864 0.463527 199.5 0.250255C209.81 0.215533 224.098 0.108884 231.102 0.00471786C243.384 -0.0300049 244.684 0.111367 245.494 0.95463C246.271 1.69375 246.514 1.93927 246.514 34.772V59.477L240.182 59.5117H227.655C213.828 59.5117 212.876 59.7919 212.134 60.5311C211.358 61.3074 211.115 67.639 211.115 109.021C211.115 129.537 210.973 142.732 210.869 147.553C214.88 150.227 217.486 151.844 217.486 151.844L217.414 71.9259V65.6263H266.892C289.412 65.6263 289.657 65.9785 290.188 66.7522C290.82 67.8088 290.681 154.62 290.646 158.315V247.204C294.764 247.239 312.182 247.45 320.453 247.45C322.589 247.455 323.997 248.968 323.997 250.376L324 250.378ZM235.358 96.4592C235.358 101.806 235.358 102.898 236.802 103.781H236.836C237.786 104.306 240.46 104.344 241.551 104.344C242.714 104.344 245.49 104.272 246.373 103.711C247.464 102.972 247.536 101.881 247.392 96.4964C247.251 90.0208 246.794 89.7751 246.229 89.4602C245.351 88.8624 237.362 88.6492 236.132 89.4602C235.711 89.7702 235.358 90.0529 235.358 96.459L235.358 96.4592ZM83.2681 130.204C83.2681 135.551 83.2681 136.643 84.7115 137.526C85.6962 138.019 88.3698 138.089 89.4611 138.089C90.6243 138.089 93.3996 138.017 94.2826 137.456C95.3739 136.717 95.4458 135.589 95.302 130.241C95.1953 127.002 95.0564 125.313 94.8431 124.401C94.6298 123.488 94.3843 123.344 94.104 123.17C93.0474 122.605 85.2722 122.394 84.0741 123.205C83.5855 123.518 83.2681 123.766 83.2681 130.204L83.2681 130.204ZM73.5906 104.234C73.4492 97.724 72.9928 97.4782 72.3926 97.1265C71.3361 96.5635 63.5608 96.3874 62.3627 97.1612C61.9039 97.4787 61.5864 97.7242 61.5864 104.163C61.5864 109.51 61.5864 110.638 63.0299 111.484C63.9798 112.01 66.6534 112.047 67.7794 112.047C68.9054 112.047 71.6881 112.012 72.5662 111.414C73.6624 110.675 73.7318 109.582 73.5905 104.234L73.5906 104.234ZM73.5906 130.242C73.5186 127.003 73.3798 125.314 73.1665 124.401C72.9532 123.488 72.7076 123.344 72.3901 123.171C71.3336 122.605 63.5583 122.432 62.3602 123.205C61.9014 123.523 61.5839 123.768 61.5839 130.207C61.5839 135.554 61.5839 136.646 63.0273 137.528C63.9772 138.022 66.6508 138.091 67.7769 138.091C68.9029 138.091 71.6856 138.019 72.5637 137.459C73.6624 136.715 73.7318 135.589 73.5905 130.241L73.5906 130.242ZM61.1352 77.7041C61.1352 83.0514 61.1352 84.1429 62.5787 85.0255H62.6134C63.5633 85.5513 66.2369 85.5885 67.3282 85.5885C68.4914 85.5885 71.2667 85.5165 72.1497 84.956C73.241 84.2169 73.3129 83.1256 73.1691 77.7414C73.0277 71.2658 72.5714 71.02 72.0059 70.7051C71.1279 70.1074 63.1392 69.8941 61.9093 70.7051C61.4877 71.0151 61.1355 71.2954 61.1355 77.7039L61.1352 77.7041ZM260.343 247.172L260.097 241.998C258.622 209.697 242.153 178.03 217.131 159.337C209.988 154.057 206.821 152.16 199.254 148.536C181.729 140.23 162.622 137.417 143.971 140.408C108.536 146.076 78.3451 171.48 65.1513 206.669C60.5754 218.845 57.9367 232.252 57.9367 243.371V246.538L88.5496 246.819C96.9573 246.925 116.702 247.099 136.479 247.243C136.199 247.208 136.02 247.171 136.02 247.171H153.119C152.93 243.446 152.94 236.602 153.004 223.482C147.848 220.581 142.188 213.291 140.581 208.485C138.977 203.688 139.017 198.758 139.091 195.486C139.247 188.328 140.279 184.303 143.592 176.743C146.301 170.503 152.276 161.272 156.904 156.17C157.06 155.992 157.91 155.061 158.645 155.061C160.423 155.061 167.392 165.27 167.459 165.371C171.361 171.17 174.044 176.458 176.17 182.512C177.837 187.244 178.32 189.975 178.509 195.786C178.509 195.786 178.672 198.754 178.623 199.744C178.402 204.174 177.313 207.618 177.016 208.794C175.324 215.535 170.912 221.235 166.353 224.077C165.671 224.503 164.682 224.694 163.647 224.771V189.312L161.614 189.034C160.637 188.873 159.587 189.295 159.022 190.093C158.876 190.349 158.536 190.949 158.375 223.893C158.375 224.121 158.372 224.312 158.372 224.533C158.35 224.54 158.34 224.543 158.323 224.55C158.315 224.55 158.313 224.55 158.305 224.553V247.167L260.344 247.164L260.343 247.172ZM271.851 121.127C271.71 114.651 271.253 114.405 270.688 114.09C269.81 113.493 261.821 113.279 260.591 114.09C260.167 114.408 259.815 114.688 259.815 121.092C259.815 126.439 259.815 127.531 261.258 128.413H261.293C262.243 128.939 264.917 128.976 266.008 128.976C267.171 128.976 269.946 128.904 270.829 128.344C271.923 127.6 271.99 126.513 271.851 121.126L271.851 121.127ZM271.851 96.4935C271.71 90.0179 271.253 89.7722 270.688 89.4572C269.81 88.8595 261.821 88.6462 260.591 89.4572C260.167 89.7747 259.815 90.055 259.815 96.4585C259.815 101.806 259.815 102.897 261.258 103.78H261.293C262.243 104.306 264.917 104.343 266.008 104.343C267.171 104.343 269.946 104.271 270.829 103.71C271.923 102.971 271.99 101.88 271.851 96.4932L271.851 96.4935Z" fill="black"/>
</svg>
